<?xml version="1.0" encoding="utf-8"?>
<!-- Generator: Adobe Illustrator 16.0.0, SVG Export Plug-In . SVG Version: 6.00 Build 0)  -->
<!DOCTYPE svg PUBLIC "-//W3C//DTD SVG 1.1//EN" "http://www.w3.org/Graphics/SVG/1.1/DTD/svg11.dtd">
<svg version="1.1" id="Layer_1" xmlns="http://www.w3.org/2000/svg" xmlns:xlink="http://www.w3.org/1999/xlink" x="0px" y="0px"
	 width="219.857px" height="31.297px" viewBox="0.579 0.296 219.857 31.297" enable-background="new 0.579 0.296 219.857 31.297"
	 xml:space="preserve">
<g>
	<path fill="#FFFFFF" d="M50.693,18.021l2.354,2.097c-1.26,1.55-2.567,2.676-3.923,3.382c-1.354,0.704-2.807,1.058-4.354,1.058
		c-2.477,0-4.546-0.819-6.203-2.455c-1.659-1.638-2.488-3.633-2.488-5.983c0-1.594,0.387-3.051,1.159-4.374
		c0.772-1.322,1.836-2.353,3.188-3.09c1.35-0.736,2.942-1.106,4.778-1.106c2.195,0,3.993,0.52,5.387,1.555
		c1.393,1.034,2.089,2.128,2.089,3.276c0,0.487-0.107,0.923-0.327,1.309c-0.219,0.386-0.552,0.696-1,0.936s-0.925,0.357-1.425,0.357
		c-0.408,0-0.768-0.081-1.091-0.244c-0.319-0.163-0.587-0.368-0.8-0.617c-0.097-0.108-0.283-0.444-0.559-1.008
		c-0.354-0.705-0.627-1.172-0.818-1.398c-0.19-0.229-0.422-0.403-0.688-0.528c-0.268-0.124-0.571-0.188-0.913-0.188
		c-0.553,0-1.087,0.184-1.593,0.544c-0.508,0.363-0.925,0.914-1.248,1.651c-0.326,0.737-0.488,1.561-0.488,2.472
		c0,0.997,0.188,1.895,0.575,2.69c0.385,0.798,0.897,1.399,1.544,1.812c0.646,0.413,1.359,0.619,2.139,0.619
		c0.746,0,1.498-0.206,2.258-0.619C49.002,19.753,49.82,19.038,50.693,18.021z"/>
	<path fill="#FFFFFF" d="M63.908,7.547c1.826,0,3.415,0.364,4.772,1.09c1.354,0.729,2.396,1.717,3.129,2.969
		c0.73,1.252,1.099,2.718,1.099,4.397c0,2.537-0.813,4.597-2.436,6.18c-1.621,1.582-3.792,2.374-6.5,2.374
		c-2.766,0-4.964-0.798-6.598-2.391c-1.579-1.518-2.368-3.572-2.368-6.163c0-1.701,0.36-3.164,1.081-4.391
		c0.72-1.226,1.762-2.208,3.129-2.95C60.583,7.919,62.149,7.547,63.908,7.547z M63.974,11.108c-0.608,0-1.181,0.185-1.714,0.553
		c-0.534,0.369-0.947,0.911-1.24,1.626c-0.292,0.716-0.439,1.627-0.439,2.731c0,1.139,0.143,2.082,0.431,2.829
		c0.289,0.748,0.688,1.302,1.194,1.658c0.506,0.357,1.064,0.537,1.672,0.537c0.939,0,1.746-0.403,2.419-1.212
		c0.673-0.807,1.01-2.062,1.01-3.764c0-1.647-0.314-2.887-0.938-3.716S64.945,11.108,63.974,11.108z"/>
	<path fill="#FFFFFF" d="M81.124,0.296V19.32c0,0.64,0.026,1.019,0.08,1.138c0.072,0.217,0.238,0.374,0.496,0.473
		c0.157,0.064,0.593,0.098,1.297,0.098h0.562v3.139h-9.911v-3.139h0.608c0.642,0,1.053-0.041,1.232-0.122
		c0.181-0.081,0.313-0.211,0.4-0.39c0.084-0.18,0.126-0.577,0.126-1.195V4.816h-2.368V1.678c1.909-0.133,3.887-0.593,5.923-1.383
		H81.124z"/>
	<path fill="#FFFFFF" d="M92.268,0.296V19.32c0,0.64,0.025,1.019,0.079,1.138c0.075,0.217,0.24,0.374,0.498,0.473
		c0.159,0.064,0.595,0.098,1.297,0.098h0.562v3.139h-9.911v-3.139h0.609c0.639,0,1.052-0.041,1.23-0.122
		c0.183-0.081,0.312-0.211,0.399-0.39c0.085-0.18,0.129-0.577,0.129-1.195V4.816h-2.369V1.678c1.909-0.133,3.887-0.593,5.923-1.383
		H92.268z"/>
	<path fill="#FFFFFF" d="M109.932,18.149l2.196,2.244c-1.262,1.463-2.545,2.521-3.854,3.178c-1.308,0.657-2.719,0.984-4.233,0.984
		c-2.434,0-4.482-0.838-6.147-2.513c-1.664-1.675-2.496-3.699-2.496-6.074c0-1.562,0.372-2.987,1.118-4.283
		c0.748-1.295,1.781-2.31,3.108-3.04c1.319-0.731,2.819-1.1,4.498-1.1c1.066,0,2.038,0.158,2.915,0.475
		c0.875,0.312,1.639,0.764,2.294,1.348c0.657,0.586,1.187,1.294,1.587,2.123c0.399,0.829,0.675,1.688,0.825,2.576
		c0.062,0.444,0.096,1.149,0.096,2.114h-10.776c0.022,1.377,0.421,2.49,1.193,3.342c0.772,0.851,1.724,1.274,2.843,1.274
		c0.718,0,1.492-0.219,2.337-0.657C108.277,19.702,109.112,19.038,109.932,18.149z M106.731,13.451
		c-0.073-0.651-0.228-1.163-0.458-1.537c-0.229-0.375-0.54-0.673-0.933-0.895c-0.389-0.224-0.798-0.334-1.228-0.334
		c-0.449,0-0.885,0.113-1.3,0.342c-0.419,0.229-0.752,0.536-1.006,0.928c-0.252,0.39-0.413,0.889-0.49,1.496H106.731z"/>
	<path fill="#FFFFFF" d="M127.601,8.889c0.567-0.816,1.131-1.396,1.696-1.738c0.569-0.342,1.165-0.515,1.794-0.515
		c0.631,0,1.125,0.188,1.488,0.562c0.362,0.373,0.543,0.854,0.543,1.438c0,0.531-0.174,0.975-0.519,1.326
		c-0.349,0.353-0.774,0.528-1.292,0.528l-0.526-0.017l-0.542-0.018c-0.289,0-0.577,0.109-0.865,0.326
		c0.586,0.988,0.88,1.933,0.88,2.835c0,0.956-0.29,1.884-0.874,2.786c-0.579,0.901-1.385,1.601-2.416,2.101
		c-1.028,0.499-2.266,0.749-3.706,0.749c-0.415,0-0.834-0.022-1.256-0.072c-0.421-0.05-0.847-0.121-1.274-0.22
		c-0.287,0.186-0.508,0.362-0.655,0.536c-0.149,0.172-0.226,0.334-0.226,0.487c0,0.334,0.343,0.552,1.027,0.647l6.628,0.957
		c1.972,0.281,3.398,0.817,4.272,1.608c0.877,0.803,1.313,1.754,1.313,2.858c0,0.974-0.333,1.876-0.992,2.703
		c-0.661,0.828-1.744,1.508-3.242,2.039c-1.5,0.529-3.395,0.794-5.677,0.794c-2.006,0-3.664-0.195-4.978-0.592
		c-1.314-0.396-2.246-0.894-2.796-1.494c-0.551-0.6-0.823-1.173-0.823-1.715c0-0.617,0.204-1.172,0.617-1.665
		c0.407-0.493,1.258-1.058,2.536-1.696c-0.79-0.292-1.381-0.65-1.778-1.072c-0.534-0.564-0.798-1.146-0.798-1.741
		c0-0.651,0.246-1.291,0.742-1.92s1.242-1.252,2.236-1.87c-0.559-0.347-0.99-0.725-1.307-1.131c-0.315-0.406-0.571-0.903-0.77-1.488
		c-0.197-0.586-0.297-1.188-0.297-1.806c0-1.626,0.656-3.01,1.962-4.148c1.307-1.138,3.026-1.709,5.162-1.709
		c0.951,0,1.816,0.112,2.603,0.336C126.279,8.106,126.981,8.441,127.601,8.889z M120.731,25.212
		c-0.564,0.444-0.925,0.782-1.078,1.016c-0.157,0.232-0.232,0.489-0.232,0.771c0,0.529,0.427,0.943,1.282,1.241
		c0.853,0.297,1.944,0.447,3.28,0.447c0.97,0,1.827-0.088,2.577-0.261c0.748-0.174,1.242-0.385,1.49-0.634
		c0.159-0.163,0.238-0.384,0.238-0.665c0-0.313-0.161-0.576-0.479-0.787c-0.323-0.212-1.097-0.393-2.323-0.544L120.731,25.212z
		 M123.055,10.67c-0.685,0-1.246,0.255-1.688,0.765c-0.444,0.51-0.664,1.197-0.664,2.065c0,0.802,0.212,1.44,0.637,1.918
		c0.431,0.478,0.978,0.715,1.652,0.715c0.659,0,1.211-0.246,1.655-0.738c0.441-0.494,0.663-1.13,0.663-1.91
		c0-0.868-0.21-1.554-0.631-2.059C124.258,10.923,123.714,10.67,123.055,10.67z"/>
	<path fill="#FFFFFF" d="M147.659,18.149l2.194,2.244c-1.26,1.463-2.544,2.521-3.852,3.178c-1.31,0.657-2.72,0.984-4.237,0.984
		c-2.431,0-4.479-0.838-6.144-2.513c-1.666-1.675-2.5-3.699-2.5-6.074c0-1.562,0.375-2.987,1.123-4.283
		c0.748-1.295,1.779-2.31,3.104-3.04c1.321-0.731,2.821-1.1,4.496-1.1c1.069,0,2.039,0.158,2.915,0.475
		c0.878,0.312,1.642,0.764,2.297,1.348c0.657,0.586,1.188,1.294,1.587,2.123c0.397,0.829,0.674,1.688,0.822,2.576
		c0.062,0.444,0.099,1.149,0.099,2.114h-10.776c0.021,1.377,0.421,2.49,1.193,3.342c0.774,0.851,1.722,1.274,2.843,1.274
		c0.716,0,1.493-0.219,2.335-0.657C146.005,19.702,146.837,19.038,147.659,18.149z M144.458,13.451
		c-0.074-0.651-0.229-1.163-0.457-1.537c-0.229-0.375-0.543-0.673-0.933-0.895c-0.39-0.224-0.8-0.334-1.229-0.334
		c-0.449,0-0.885,0.113-1.3,0.342c-0.417,0.229-0.756,0.536-1.006,0.928c-0.252,0.39-0.415,0.889-0.488,1.496H144.458z"/>
	<path fill="#FFFFFF" d="M161.529,7.938h8.5v3.139c-0.714,0.012-1.13,0.032-1.247,0.065c-0.182,0.054-0.371,0.184-0.569,0.391
		c-0.196,0.205-0.397,0.525-0.601,0.959l-5.233,11.675h-4.31l-5.459-12.032c-0.131-0.271-0.294-0.504-0.495-0.699
		c-0.16-0.151-0.336-0.249-0.529-0.292c-0.129-0.043-0.517-0.065-1.167-0.065v-3.14h9.812v3.139h-0.512
		c-0.631,0-1.021,0.049-1.167,0.146c-0.204,0.13-0.306,0.298-0.306,0.504c0,0.163,0.068,0.417,0.207,0.765l2.486,6.326l2.59-6.326
		c0.148-0.357,0.225-0.624,0.225-0.798c0-0.216-0.111-0.378-0.337-0.487c-0.169-0.087-0.55-0.13-1.135-0.13h-0.755L161.529,7.938
		L161.529,7.938z"/>
	<path fill="#FFFFFF" d="M179.512,7.547v12.018c0,0.575,0.031,0.928,0.097,1.058c0.063,0.13,0.18,0.229,0.345,0.301
		c0.166,0.07,0.537,0.105,1.111,0.105h0.863v3.139h-9.893v-3.139h0.849c0.556,0,0.911-0.029,1.064-0.09
		c0.153-0.06,0.271-0.159,0.345-0.3c0.075-0.143,0.111-0.425,0.111-0.847v-7.756h-2.369V8.978c0.843-0.042,1.651-0.135,2.427-0.275
		c0.772-0.141,1.466-0.309,2.071-0.504c0.396-0.131,0.881-0.347,1.458-0.651L179.512,7.547L179.512,7.547z M176.92,0.296
		c0.81,0,1.5,0.291,2.071,0.87c0.57,0.579,0.854,1.281,0.854,2.105c0,0.835-0.284,1.542-0.854,2.122
		c-0.571,0.58-1.263,0.868-2.071,0.868c-0.813,0-1.504-0.288-2.075-0.868s-0.854-1.282-0.854-2.105c0-0.812,0.292-1.515,0.881-2.105
		C175.454,0.591,176.14,0.296,176.92,0.296z"/>
	<path fill="#FFFFFF" d="M190.837,0.296v8.766c0.885-0.563,1.674-0.957,2.361-1.18c0.688-0.223,1.379-0.335,2.07-0.335
		c1.815,0,3.315,0.673,4.5,2.018c1.376,1.562,2.067,3.644,2.067,6.244c0,2.635-0.693,4.752-2.076,6.351s-3.059,2.397-5.023,2.397
		c-0.804,0-1.57-0.136-2.308-0.406c-0.74-0.271-1.506-0.721-2.308-1.351l-0.867,1.366h-3.525V4.816h-2.336V1.678
		c2.105-0.153,4.062-0.614,5.87-1.383H190.837z M190.837,12.589v4.943c0,0.997,0.077,1.683,0.229,2.057
		c0.156,0.373,0.431,0.687,0.816,0.936c0.39,0.249,0.848,0.374,1.371,0.374c0.885,0,1.588-0.369,2.111-1.105
		c0.662-0.921,0.993-2.193,0.993-3.822c0-1.526-0.282-2.709-0.848-3.544c-0.46-0.672-1.062-1.008-1.811-1.008
		c-0.417,0-0.863,0.099-1.337,0.293C191.892,11.905,191.38,12.199,190.837,12.589z"/>
	<path fill="#FFFFFF" d="M218.243,18.149l2.193,2.244c-1.26,1.463-2.544,2.521-3.853,3.178c-1.307,0.657-2.717,0.984-4.234,0.984
		c-2.433,0-4.479-0.838-6.146-2.513c-1.663-1.675-2.498-3.699-2.498-6.074c0-1.562,0.375-2.987,1.121-4.283
		c0.746-1.295,1.782-2.31,3.105-3.04c1.323-0.731,2.823-1.1,4.498-1.1c1.069,0,2.038,0.158,2.915,0.475
		c0.875,0.312,1.641,0.764,2.297,1.348c0.657,0.586,1.187,1.294,1.586,2.123c0.4,0.829,0.676,1.688,0.823,2.576
		c0.063,0.444,0.099,1.149,0.099,2.114h-10.774c0.021,1.377,0.419,2.49,1.19,3.342c0.773,0.851,1.723,1.274,2.842,1.274
		c0.718,0,1.494-0.219,2.337-0.657C216.587,19.702,217.422,19.038,218.243,18.149z M215.041,13.451
		c-0.075-0.651-0.229-1.163-0.456-1.537c-0.23-0.375-0.542-0.673-0.933-0.895c-0.389-0.224-0.801-0.334-1.229-0.334
		c-0.448,0-0.883,0.113-1.298,0.342c-0.418,0.229-0.754,0.536-1.006,0.928c-0.252,0.39-0.416,0.889-0.49,1.496H215.041z"/>
</g>
<path fill="#58AE8C" d="M15.7,0.825c-8.351,0-15.121,6.77-15.121,15.12c0,8.352,6.77,15.121,15.121,15.121
	c8.351,0,15.121-6.77,15.121-15.121C30.821,7.594,24.051,0.825,15.7,0.825z M6.074,19.235H3.58v-6.579h2.494V19.235z M9.698,21.793
	H7.204V10.098h2.495V21.793z M13.323,24.16h-2.494V7.731h2.494V24.16z M16.947,25.992h-2.494V5.899h2.494V25.992z M20.571,24.16
	h-2.495V7.731h2.495V24.16z M24.195,21.793h-2.494V10.098h2.494V21.793z M25.325,19.235v-6.579h2.495v6.579H25.325z"/>
</svg>
